<svg width="16" height="16" viewBox="0 0 16 16" xmlns="http://www.w3.org/2000/svg">
    <defs>
        <clipPath id="i2207wr41a">
            <path d="M1440 0v720H0V0h1440z"/>
        </clipPath>
        <clipPath id="8id5iji06b">
            <path d="M1428 0c6.627 0 12 5.373 12 12v696c0 6.627-5.373 12-12 12H12c-6.627 0-12-5.373-12-12V12C0 5.373 5.373 0 12 0h1416z"/>
        </clipPath>
        <clipPath id="z3936pchdc">
            <path d="m8.182.329.227.078.236.1c1.04.465 2.304 1.325 3.616 2.509l.304.279.001-1.874c0-.332.237-.614.565-.694l.1-.018.085-.005c.346 0 .642.226.726.54l.019.096.005.081v3.333a.71.71 0 0 1-.397.633.75.75 0 0 1-.46.107l-.116-.021-3.277-.002c-.413 0-.75-.32-.75-.717 0-.332.238-.614.565-.694l.101-.018.084-.004 1.628.086c-1.381-1.167-2.636-2.012-3.548-2.379C5.379.83 2.632 2.03 1.76 4.425c-.872 2.396.46 5.08 2.978 5.997 2.517.916 5.264-.284 6.136-2.68.135-.372.56-.558.95-.417.388.142.595.558.459.93-1.143 3.14-4.741 4.713-8.036 3.514C.953 10.57-.793 7.053.35 3.912 1.47.84 4.933-.728 8.182.33z"/>
        </clipPath>
    </defs>
    <g clip-path="url(#i2207wr41a)" transform="translate(-16 -10)">
        <g clip-path="url(#8id5iji06b)">
            <g clip-path="url(#z3936pchdc)" transform="translate(16.984 11.91)">
                <path fill="#8892A1" d="M0 0h14.066v12.171H0V0z"/>
            </g>
        </g>
    </g>
</svg>
