<svg width="32" height="32" viewBox="0 0 32 32" xmlns="http://www.w3.org/2000/svg">
    <defs>
        <clipPath id="3c1e09gtca">
            <path d="M1440 0v720H0V0h1440z"/>
        </clipPath>
        <clipPath id="n0ydpf86tb">
            <path d="M1428 0c6.627 0 12 5.373 12 12v696c0 6.627-5.373 12-12 12H12c-6.627 0-12-5.373-12-12V12C0 5.373 5.373 0 12 0h1416z"/>
        </clipPath>
        <clipPath id="3r9w2kjvfc">
            <path d="M23.151 16.918c2.208 0 4.29.98 5.715 2.688l.21.253-.272.183-2.415 1.626-.202.136-.17-.175c-.763-.788-1.78-1.155-2.866-1.155-2.212 0-4.013 1.75-4.013 3.985 0 2.234 1.8 4.052 4.013 4.052 1.87 0 3.112-1.067 3.355-2.257h-3.052v-2.7h6.659c.016.188.037.487.051.905.025.702-.012 1.133-.152 1.98C29.446 29.87 26.817 32 23.15 32c-4.118 0-7.468-3.383-7.468-7.54 0-4.16 3.35-7.542 7.468-7.542zm-15.683-.002c2.208 0 4.29.98 5.714 2.689l.21.252-.271.183-2.415 1.627-.202.135-.17-.175c-.763-.788-1.78-1.154-2.866-1.154-2.213 0-4.013 1.75-4.013 3.984s1.8 4.052 4.013 4.052c1.87 0 3.111-1.067 3.355-2.257H7.77v-2.7h6.659c.016.188.036.487.051.905.025.703-.013 1.133-.152 1.98-.567 3.43-3.196 5.561-6.861 5.561C3.35 31.998 0 28.616 0 24.458c0-4.16 3.35-7.542 7.468-7.542zM7.475 0c4.122 0 7.475 3.386 7.475 7.548s-3.353 7.548-7.475 7.548C3.354 15.096 0 11.71 0 7.548S3.354 0 7.475 0zm16.333.003c3.148 0 5.344 2.507 5.344 5.752 0 3.262-2.309 5.752-5.344 5.752h-4.08v3.577h-3.353V.004h7.433zm5.343 12.02c.836 0 1.516.687 1.516 1.53 0 .844-.68 1.53-1.516 1.53a1.524 1.524 0 0 1-1.515-1.53c0-.843.68-1.53 1.515-1.53zM7.475 3.583c-2.166 0-3.927 1.78-3.927 3.966 0 2.187 1.761 3.966 3.927 3.966 2.166 0 3.927-1.779 3.927-3.966 0-2.187-1.761-3.966-3.927-3.966zm16.317-.09h-4.064v4.526h4.064c1.401 0 1.829-1.304 1.829-2.263 0-.93-.428-2.263-1.83-2.263z"/>
        </clipPath>
    </defs>
    <g clip-path="url(#3c1e09gtca)" transform="translate(-14 -51)">
        <g clip-path="url(#n0ydpf86tb)">
            <g clip-path="url(#3r9w2kjvfc)" transform="translate(14.667 51)">
                <path fill="#FFF" d="M0 0h30.667v32H0V0z"/>
            </g>
        </g>
    </g>
</svg>
