<svg width="24" height="24" viewBox="0 0 24 24" xmlns="http://www.w3.org/2000/svg">
    <defs>
        <clipPath id="9jzhli2sta">
            <path d="M1440 0v720H0V0h1440z"/>
        </clipPath>
        <clipPath id="rn3g18brmb">
            <path d="M1428 0c6.627 0 12 5.373 12 12v696c0 6.627-5.373 12-12 12H12c-6.627 0-12-5.373-12-12V12C0 5.373 5.373 0 12 0h1416z"/>
        </clipPath>
        <clipPath id="6zwlcykcqc">
            <path d="M7.65 0c.248 0 .45.204.45.455v16.363h9.45c.173 0 .33.101.405.258a.46.46 0 0 1-.054.48l-2.25 2.274a.449.449 0 0 1-.351.17H2.25a.45.45 0 0 1-.403-.251.458.458 0 0 1 .043-.476l1.71-1.697V2.424L2.34.727a.458.458 0 0 1-.043-.476A.45.45 0 0 1 2.7 0zM2.7 4.427V5.78a8.187 8.187 0 0 0-1.8 5.13c-.001 1.868.634 3.68 1.8 5.13v1.352a9.103 9.103 0 0 1-2.687-6.976A9.103 9.103 0 0 1 2.7 4.427zM9 1.818c4.962 0 9 4.078 9 9.091a9.1 9.1 0 0 1-1.491 5h-1.111a8.184 8.184 0 0 0 1.702-5c0-4.511-3.634-8.182-8.1-8.182zm0 1.818c3.97 0 7.2 3.263 7.2 7.273a7.278 7.278 0 0 1-1.985 5H9zm-6.3 3.76v7.026a7.282 7.282 0 0 1-.9-3.513c-.001-1.23.309-2.438.9-3.513z"/>
        </clipPath>
    </defs>
    <g clip-path="url(#9jzhli2sta)" transform="translate(-18 -140)">
        <g clip-path="url(#rn3g18brmb)">
            <g clip-path="url(#6zwlcykcqc)" transform="translate(21 142)">
                <path fill="#6C61FF" d="M0 0h18v20H0V0z"/>
            </g>
        </g>
    </g>
</svg>
